<?xml version="1.0" standalone="no"?>
<!DOCTYPE svg PUBLIC "-//W3C//DTD SVG 20010904//EN"
 "http://www.w3.org/TR/2001/REC-SVG-20010904/DTD/svg10.dtd">
<svg version="1.0" xmlns="http://www.w3.org/2000/svg"
 width="66.000000pt" height="66.000000pt" viewBox="0 0 66.000000 66.000000"
 preserveAspectRatio="xMidYMid meet">

<g transform="translate(0.000000,66.000000) scale(0.100000,-0.100000)"
fill="#000000" stroke="none">
<path d="M255 651 c-100 -27 -179 -91 -222 -180 -23 -47 -27 -69 -27 -141 0
-72 4 -94 27 -141 32 -67 98 -131 165 -161 36 -16 67 -22 132 -22 74 0 92 3
144 29 162 81 229 275 151 440 -28 58 -90 119 -150 149 -61 29 -164 42 -220
27z m72 -242 c10 16 19 19 26 12 18 -18 -13 -43 -50 -39 -18 2 -35 -1 -37 -7
-3 -9 -1 42 3 55 1 3 11 -6 22 -19 l20 -24 16 22z m123 7 c0 -8 -14 -15 -36
-18 -37 -4 -56 8 -33 23 22 14 69 11 69 -5z m-270 -135 c5 7 20 14 35 16 20 3
25 1 19 -9 -6 -10 -4 -10 9 1 13 10 20 11 31 2 11 -9 15 -9 19 1 3 7 6 1 6
-13 1 -26 0 -26 -79 -28 -72 -2 -80 0 -80 17 0 27 12 35 23 16 7 -13 11 -14
17 -3z m170 -15 c0 -6 -9 -12 -20 -12 -21 0 -24 5 -14 30 5 13 9 14 20 5 8 -6
14 -17 14 -23z m29 27 c-1 -16 -18 -48 -18 -36 -1 6 -4 18 -7 27 -4 11 -1 16
10 16 9 0 16 -3 15 -7z m41 -4 c0 -8 4 -8 14 0 15 13 37 11 49 -4 6 -6 10 -6
14 3 2 6 9 10 14 6 12 -7 12 -44 -1 -44 -5 0 -10 5 -10 12 0 9 -3 9 -12 0 -15
-15 -58 -16 -58 -2 0 6 -8 10 -17 10 -15 0 -16 -2 -3 -10 13 -8 12 -10 -2 -10
-13 0 -18 8 -18 25 0 16 6 25 15 25 8 0 15 -5 15 -11z m-176 -64 c3 -8 1 -15
-4 -15 -6 0 -10 7 -10 15 0 8 2 15 4 15 2 0 6 -7 10 -15z m66 -5 c0 -4 -11 -7
-25 -6 -14 0 -25 6 -25 12 0 7 10 9 25 6 14 -2 25 -8 25 -12z m67 -2 c-3 -8
-6 -5 -6 6 -1 11 2 17 5 13 3 -3 4 -12 1 -19z m53 6 c0 -8 -5 -12 -10 -9 -6 4
-8 11 -5 16 9 14 15 11 15 -7z m-70 -4 c0 -5 -4 -10 -10 -10 -5 0 -10 5 -10
10 0 6 5 10 10 10 6 0 10 -4 10 -10z"/>
<path d="M440 270 c0 -5 7 -10 15 -10 8 0 15 5 15 10 0 6 -7 10 -15 10 -8 0
-15 -4 -15 -10z"/>
</g>
</svg>
